<svg xmlns="http://www.w3.org/2000/svg" width="16" height="16" viewBox="0 0 16 16"><rect width="100%" height="100%" fill="#007AFF"/><path fill="#FFFFFF" d="m9.855 5.655-.27.51q-.05.08-.1.12-.06.04-.14.04t-.18-.06q-.1-.07-.23-.14-.14-.08-.32-.14t-.43-.06q-.22 0-.39.05-.17.06-.28.15-.12.1-.17.23-.06.14-.06.3 0 .2.11.34.12.13.31.23.18.09.42.17t.5.16q.25.09.49.2.24.12.43.29.18.17.3.43.11.25.11.61 0 .39-.13.73-.14.34-.39.6-.26.25-.63.4-.38.14-.86.14-.27 0-.54-.05t-.51-.15q-.25-.1-.47-.24-.21-.14-.38-.32l.32-.51q.04-.06.1-.1.06-.03.14-.03.1 0 .21.08.12.08.28.18t.37.18q.22.08.52.08.46 0 .71-.21.25-.22.25-.63 0-.23-.11-.37-.12-.15-.31-.24-.18-.1-.42-.17t-.49-.15-.49-.19-.43-.29-.3-.45-.11-.67q0-.31.12-.61.13-.3.37-.54.24-.23.59-.37t.81-.14q.51 0 .94.16t.74.45"/></svg>