<svg xmlns="http://www.w3.org/2000/svg" width="128" height="128" viewBox="0 0 128 128"><rect width="100%" height="100%" fill="#007AFF"/><path fill="#FFFFFF" d="m78.81 45.215-2.14 4.06q-.38.68-.82.98-.43.3-1.07.3-.67 0-1.45-.49-.79-.5-1.88-1.11-1.08-.6-2.54-1.1t-3.44-.5q-1.79 0-3.14.44-1.34.43-2.25 1.2-.91.76-1.36 1.84-.45 1.07-.45 2.35 0 1.63.91 2.72t2.42 1.85q1.5.77 3.42 1.38t3.94 1.3q2.01.68 3.93 1.6 1.92.91 3.43 2.3 1.5 1.39 2.41 3.41.92 2.01.92 4.89 0 3.14-1.08 5.88-1.07 2.73-3.13 4.76-2.07 2.04-5.04 3.2-2.98 1.17-6.82 1.17-2.21 0-4.35-.43t-4.11-1.23-3.7-1.92-3.07-2.5l2.53-4.13q.32-.44.83-.75.51-.3 1.09-.3.8 0 1.73.65.92.66 2.2 1.46t3 1.46q1.71.65 4.11.65 3.68 0 5.69-1.74 2.02-1.75 2.02-5.01 0-1.82-.91-2.98-.91-1.15-2.42-1.93-1.5-.79-3.42-1.33t-3.91-1.18q-1.98-.64-3.9-1.54t-3.42-2.34q-1.51-1.44-2.42-3.6t-.91-5.32q0-2.53 1.01-4.93 1-2.4 2.92-4.26 1.92-1.85 4.74-2.97t6.46-1.12q4.1 0 7.56 1.28 3.45 1.28 5.88 3.58"/></svg>